<svg xmlns="http://www.w3.org/2000/svg" fill="none" viewBox="0 0 64 64">
  <defs>
    
    <clipPath id="a">
      <path fill="#fff" d="M0 0h64v64H0z"/>
    </clipPath>
  <style type="text/css" id="current-color-scheme">

    </style>
  </defs>
  <g clip-path="url(#a)">
    <path fill="#643D00" d="M25.268 54.058c.87-4.288.433-11.08.433-11.08l7.428-7.799 7.551 2.476s2.102 5.72 2.848 9.532c.303 1.554.502 3.403.631 5.206.293 4.087-3.264 7.27-7.343 6.878L34 59l-5.862.578c-2.08.204-3.728-1.729-3.256-3.765.142-.613.276-1.217.385-1.755"/>
    <path fill="#9E5E01" d="M16.796 7.634c1.314-.597 3.79 2.027 5.531 5.86 1.306 2.876 1.827 5.615 1.451 7.056 1.579 3.16 2.007 5.995.906 6.638-1.247.727-3.978-1.63-6.101-5.265-2.081-3.563-2.804-7.031-1.658-7.852-1.158-3.194-1.26-5.923-.13-6.437m15.82 2.312c1.74-3.833 4.216-6.457 5.53-5.86 1.037.47 1.037 2.802.138 5.648.232-.042.446-.025.636.061 1.314.597.967 4.189-.774 8.022-1.74 3.833-4.217 6.457-5.53 5.86-1.037-.47-1.037-2.804-.139-5.65a1.058 1.058 0 0 1-.635-.06c-1.314-.597-.967-4.189.773-8.021M20.652 33.44c1.303-1.632 3.224-2.529 5.14-2.182 2.944.533 4.76 3.8 4.055 7.299-.704 3.498-3.662 5.901-6.606 5.369-2.406-.436-4.058-2.698-4.197-5.42a.54.54 0 0 1-.385.096c-.635-.116-.85-1.702-.479-3.543.371-1.841 1.188-3.24 1.823-3.126.377.068.603.656.65 1.507m18.885-7.39c1.307-.406 2.73.06 3.964 1.14.135-.425.349-.712.64-.803.902-.279 2.19 1.411 2.874 3.777.658 2.271.52 4.337-.29 4.746-.01 2.722-1.13 4.962-3.016 5.548-2.572.798-5.59-1.78-6.742-5.759-1.152-3.978-.002-7.851 2.57-8.65"/>
    <path fill="#F5A632" d="m26.898 32.405 10.638-1.287.924 7.637a5 5 0 0 1-4.243 5.548l-.38.056-1.54.15a4 4 0 0 1-4.358-3.501z"/>
    <path fill="#643D00" d="M34.9 35.752c-.247.594-.463 1.181-1.046 1.76a1.25 1.25 0 0 0-.281.973l.156 1.228c.035.282.278.503.56.466.67-.145 1.437-.637 2.115-1.128.044-.033.102.015.077.064-.409.764-.801 1.52-1.587 2.2-.245.182-.478.32-.71.44-.3.152-.555.394-.865.525a1.001 1.001 0 0 1-.697.03c-.187-.062-.36-.163-.547-.228a6.901 6.901 0 0 1-1.171-.52c-.556-.352-.928-.762-1.313-1.18-.035-.04.003-.101.054-.086.53.154 1.097.3 1.567.294.34-.017.57-.338.526-.675l-.15-1.18c-.058-.459-.347-.847-.73-1.105-.399-.296-.632-.625-.875-.957a.053.053 0 0 1 .055-.083c.39.072.811.135 1.127.078a5.68 5.68 0 0 0 .41-.106c.181-.054.346-.153.525-.212a1 1 0 0 1 .435-.044c.203.025.409.062.61.024.047-.01.097-.014.145-.019.452-.04 1.028-.333 1.533-.623.043-.026.095.017.077.064"/>
    <path fill="#CF7D02" d="M34.954 19.72c2.166-2.175 4.6-3.183 5.63-2.26.609.545.601 1.649.098 2.954 1.731-.595 3.088-.646 3.452-.016.4.693-.514 2.016-2.173 3.344 1.67.535 2.758 1.405 2.729 2.357-.04 1.244-1.971 2.229-4.57 2.465.798 2.034.594 4.104-.72 5.313-1.839 1.692-5.179 1.078-7.595-1.345a10.61 10.61 0 0 1-2.037 2.292c-2.606 2.218-5.68 2.887-6.865 1.494-.48-.563-.577-1.378-.35-2.294-1.226.395-2.242.346-2.744-.243-.823-.967.013-3.074 1.88-5.046-.642-.215-1.084-.563-1.24-1.04-.455-1.405 1.749-3.381 4.94-4.448-.745-1.046-1.004-2.028-.596-2.683.698-1.118 3.107-.908 5.656.397.171-2.012.876-3.467 1.905-3.613.922-.132 1.887.818 2.6 2.372m-5.565 7.972.033-.009-.004-.08z"/>
    <path fill="#FFE0A8" d="M29.493 15.202c1.758-1.995 3.809-2.995 4.748-2.251.555.439.606 1.393.24 2.549 1.465-.607 2.637-.723 2.985-.198.382.579-.34 1.77-1.704 3.006 1.471.374 2.459 1.07 2.483 1.895.032 1.076-1.586 2.03-3.818 2.37.796 1.717.729 3.517-.343 4.632-1.5 1.56-4.422 1.205-6.639-.763a9.19 9.19 0 0 1-1.638 2.09c-2.136 2.054-4.758 2.794-5.856 1.652-.444-.462-.57-1.161-.423-1.967-1.04.407-1.92.42-2.385-.062-.763-.793-.152-2.658 1.357-4.461-.565-.152-.966-.43-1.125-.834-.468-1.19 1.334-3.017 4.037-4.107-.699-.865-.977-1.699-.658-2.287.544-1.003 2.638-.948 4.91.045.043-1.748.574-3.043 1.456-3.224.79-.162 1.675.609 2.373 1.915m-4.391 7.183.029-.008-.008-.073z"/>
    <path fill="#0266CF" d="M40.69 5.377C51.9 9.034 60 19.57 60 32c0 15.464-12.536 28-28 28S4 47.464 4 32c0-8.777 4.038-16.61 10.358-21.744.164.583.355 1.187.579 1.804-.729.524-.884 1.859-.541 3.628A23.914 23.914 0 0 0 8 32c0 13.255 10.745 24 24 24s24-10.745 24-24c0-9.687-5.74-18.033-14.004-21.824.022-1.425-.307-2.432-1.018-2.755a1.35 1.35 0 0 0-.81-.08c.215-.681.39-1.34.522-1.964M32 4c.943 0 1.875.047 2.794.138a26.515 26.515 0 0 0-2.068 3.874 23.906 23.906 0 0 0-11.1 2.339 25.3 25.3 0 0 0-2.053-3.448A27.884 27.884 0 0 1 32 4"/>
  </g>
  
</svg>